<?xml version="1.0" encoding="utf-8"?><!DOCTYPE svg PUBLIC "-//W3C//DTD SVG 1.1//EN" "http://www.w3.org/Graphics/SVG/1.1/DTD/svg11.dtd"><svg version="1.1" id="Contours" xmlns="http://www.w3.org/2000/svg" xmlns:xlink="http://www.w3.org/1999/xlink" x="0px" y="0px" width="1879.108765px" height="1879.108765px" viewBox="-0.000002 0.000000 1879.108765 863.305481" enable-background="new 0 0 1879.108765 1879.108765" xml:space="preserve" stroke="black" fill="none" stroke-linecap='round' stroke-linejoin='round'><path class="selected"  fill="#000000" opacity="1.000000" stroke="none" 
 	d="
M1839.370818 701.262630 C1846.842590 702.088927 1854.216778 699.462285 1861.275682 696.877324 C1867.220027 694.700513 1873.164373 692.523701 1879.108718 690.346890 C1868.922704 708.109722 1847.293429 716.163716 1826.887279 717.855503 C1810.544709 719.210395 1793.298822 717.121022 1779.590814 708.120696 C1765.142685 698.634426 1756.183681 682.423203 1751.942293 665.667656 C1747.700906 648.912108 1747.665095 631.418485 1747.654213 614.134457 C1747.615708 552.968473 1747.577201 491.802488 1747.538694 430.636503 C1747.536086 426.493987 1743.133456 423.555965 1739.002308 423.249258 C1734.871160 422.942551 1730.844188 424.424480 1726.758773 425.109928 C1722.673359 425.795377 1717.934201 425.452237 1715.197575 422.342360 C1712.460949 419.232484 1713.976469 412.955767 1718.118044 412.867404 C1733.467471 412.539916 1747.506385 403.907295 1758.756644 393.460103 C1778.017055 375.574540 1791.443927 351.504738 1796.544066 325.720142 C1797.217710 322.314423 1797.926964 318.567317 1800.626208 316.384017 C1803.325452 314.200717 1808.586495 315.405197 1808.583184 318.876898 C1808.555151 348.272612 1808.527117 377.668326 1808.499084 407.064039 C1808.497436 408.792066 1808.565712 410.704898 1809.757191 411.956480 C1811.012699 413.275313 1813.047060 413.376246 1814.867896 413.389546 C1833.413006 413.524953 1851.958115 413.660368 1870.503224 413.795783 C1871.351457 417.306848 1870.839170 421.128448 1869.096181 424.292160 C1850.488320 424.279118 1831.880459 424.266076 1813.272598 424.253034 C1811.872264 424.252053 1810.249258 424.359199 1809.435138 425.498560 C1808.913096 426.229158 1808.884006 427.190248 1808.874664 428.088141 C1808.123976 500.241346 1808.245119 572.403620 1809.238060 644.553896 C1809.399892 656.313163 1809.642254 668.374257 1813.976598 679.306777 C1818.310941 690.239297 1827.681698 699.969940 1839.370817 701.262631 z"/><path class="selected"  fill="#000000" opacity="1.000000" stroke="none" 
 	d="
M1685.738950 415.463336 C1705.369099 419.242105 1722.548689 431.271303 1736.592872 445.497433 C1730.871017 456.736412 1725.149162 467.975392 1719.427307 479.214371 C1706.251183 463.636064 1690.502905 449.524843 1671.398959 442.360130 C1649.367975 434.097665 1624.590562 435.807110 1602.062017 442.596604 C1579.533472 449.386098 1558.793429 460.957989 1538.257005 472.442233 C1535.703856 473.869987 1533.007286 475.443219 1531.689461 478.054806 C1530.642292 480.130022 1530.629921 482.554810 1530.640018 484.879242 C1530.839907 530.897401 1531.039796 576.915561 1531.239684 622.933721 C1531.372170 653.434388 1531.524950 684.150265 1537.365343 714.086833 C1537.947110 717.068843 1533.742599 718.365163 1530.704370 718.363923 C1510.459141 718.355626 1490.213915 718.347335 1469.968688 718.339045 C1467.114318 718.337876 1463.169897 717.131468 1463.695672 714.325940 C1470.664046 677.143049 1470.584276 639.046860 1470.481350 601.216781 C1470.411077 575.388087 1470.340804 549.559393 1470.270531 523.730700 C1470.174358 488.382237 1470.058104 452.806812 1463.649048 418.044086 C1463.157193 415.376266 1466.898163 414.227116 1469.610923 414.216049 C1487.619584 414.142605 1505.628243 414.069156 1523.636903 413.995707 C1525.974067 413.986175 1528.682640 414.155177 1530.050192 416.050495 C1530.947602 417.294234 1530.984972 418.940705 1530.987640 420.474401 C1531.013185 435.159998 1531.038730 449.845594 1531.064276 464.531191 C1559.812986 449.028575 1589.776956 435.780276 1620.590588 424.947941 C1641.546568 417.581000 1663.926245 411.264428 1685.738950 415.463336 z"/><path class="selected"  fill="#000000" opacity="1.000000" stroke="none" 
 	d="
M1120.212622 444.837809 C1151.604497 432.909853 1176.873358 405.909593 1186.697754 373.797178 C1187.621543 370.777642 1188.538813 367.522297 1190.963164 365.499055 C1193.387516 363.475814 1197.866131 363.671239 1198.977421 366.626915 C1188.342717 409.360016 1159.289175 447.174297 1120.737965 468.458526 C1132.437021 485.356729 1140.582259 505.089930 1141.710072 525.611754 C1142.837885 546.133577 1136.481009 567.419615 1122.441632 582.430049 C1108.594103 597.235366 1088.469690 604.937996 1068.352158 607.435266 C1031.870639 611.963862 994.339093 600.479226 964.285963 579.308048 C934.232833 558.136871 911.339137 527.816080 895.539798 494.622854 C890.901889 520.377700 895.602081 547.105395 904.595788 571.680495 C916.727049 604.828893 937.154888 635.518005 965.717012 656.259001 C994.279135 676.999998 1031.354255 686.999261 1065.844625 679.489383 C1100.334994 671.979505 1131.044505 645.700902 1140.233649 611.619478 C1142.252378 604.132258 1147.747712 593.969076 1154.578745 597.639323 C1140.454619 663.975221 1077.418640 716.559631 1009.625244 718.559065 C941.831848 720.558498 875.806382 671.780503 857.797313 606.392310 C839.788243 541.004118 871.529004 465.299567 930.786333 432.306974 C899.666539 395.267408 887.864309 342.835321 900.111880 296.033953 C912.359452 249.232586 948.332094 209.302829 993.606166 192.254973 C1038.880238 175.207117 1092.255344 181.493168 1132.330129 208.592662 C1156.361197 224.843024 1175.966772 248.933780 1182.542758 277.188388 C1189.118743 305.442996 1181.013715 337.715219 1158.860536 356.444958 C1145.506659 367.735195 1128.181579 373.530777 1110.812245 375.556043 C1074.322643 379.810735 1036.925757 368.063990 1006.962739 346.808143 C976.999721 325.552297 954.127648 295.317136 938.025743 262.297111 C933.238263 315.491945 952.978864 370.400935 990.541256 408.370359 C993.538292 411.399870 997.138437 414.526200 1001.397042 414.369856 C1034.423634 413.157365 1067.761934 423.973826 1093.785811 444.344976 C1101.050058 450.031334 1111.588988 448.114528 1120.212622 444.837810 M1106.686996 242.512104 C1081.154460 210.553026 1036.909037 194.787924 996.920201 203.401059 C983.563143 206.278015 970.582500 211.759005 960.179600 220.617196 C950.564050 228.804944 943.048177 241.846281 947.175041 253.782235 C961.627226 295.581659 997.474768 329.336299 1040.067024 341.250867 C1065.147112 348.266660 1095.474902 346.556808 1112.765352 327.081889 C1122.968612 315.589554 1126.961446 299.352784 1125.186584 284.087459 C1123.411723 268.822134 1116.279452 254.518981 1106.686997 242.512104 M978.606653 566.853840 C993.995274 573.988497 1010.844418 578.776923 1027.776417 577.766774 C1044.708417 576.756625 1061.731219 569.379333 1071.934606 555.829282 C1085.545227 537.754443 1084.703512 511.749859 1074.859750 491.377104 C1073.350933 488.254438 1070.790577 484.754709 1067.356137 485.236567 C1022.754799 491.494281 975.621905 476.207863 943.183267 444.964097 C936.804517 438.820307 926.460040 444.791755 919.859530 450.696657 C910.537173 459.036560 900.299518 470.155236 903.482491 482.251887 C913.396597 519.929696 943.260470 550.466217 978.606653 566.853840 z"/><path class="selected"  fill="#000000" opacity="1.000000" stroke="none" 
 	d="
M1174.133330 472.579969 C1170.837682 465.638961 1167.542035 458.697953 1164.246388 451.756945 C1163.661734 450.525597 1163.062096 449.208812 1163.229462 447.856027 C1163.532595 445.405874 1166.097965 443.993925 1168.362466 443.010478 C1224.355911 418.693142 1286.744398 411.721019 1347.690210 415.214807 C1371.545493 416.582340 1395.909691 419.682388 1417.136431 430.653721 C1438.363171 441.625054 1456.101718 461.850597 1458.366007 485.637518 C1460.006810 502.874605 1453.046471 520.719167 1440.167895 532.292907 C1431.135866 540.409825 1419.685032 545.358365 1408.059594 548.867079 C1386.516143 555.369185 1363.917287 557.343789 1341.562655 559.926055 C1319.208023 562.508321 1296.614087 565.817121 1275.955977 574.741254 C1255.297867 583.665387 1236.507645 598.908262 1227.757824 619.640804 C1219.008003 640.373345 1222.258126 666.838529 1238.942720 681.938927 C1250.734402 692.610993 1267.351072 696.465419 1283.255055 696.458783 C1313.777804 696.446048 1343.230562 683.633961 1367.810487 665.537950 C1392.390412 647.441938 1412.686448 624.235489 1432.257864 600.813319 C1433.074157 599.836417 1434.384584 601.450911 1434.602064 602.705253 C1441.109112 640.235318 1447.616160 677.765383 1454.123209 715.295449 C1454.270671 716.145953 1454.378704 717.137775 1453.783718 717.763150 C1453.265891 718.307425 1452.424523 718.343219 1451.673272 718.342471 C1433.019490 718.323845 1414.365709 718.305223 1395.711929 718.286601 C1394.262507 718.285154 1392.696803 718.246231 1391.546222 717.364760 C1390.179284 716.317536 1389.836581 714.434879 1389.593580 712.730136 C1387.355345 697.028085 1385.117111 681.326034 1382.878876 665.623983 C1359.787440 684.193682 1334.300514 700.266171 1306.196186 709.657386 C1278.091858 719.048600 1247.154605 721.457467 1218.744540 713.036281 C1199.559327 707.349485 1181.267938 696.221161 1170.842186 679.141474 C1159.894296 661.206411 1158.869155 638.045928 1166.459917 618.452483 C1174.050679 598.859037 1189.674906 582.878842 1208.251900 573.059571 C1243.469415 554.444596 1285.660182 557.758192 1325.057221 551.870576 C1352.792675 547.725703 1383.016463 535.945322 1393.559320 509.959104 C1403.473319 485.522911 1391.059078 455.959038 1369.581083 440.658362 C1348.103088 425.357687 1319.899650 422.316039 1293.777213 425.926193 C1252.726599 431.599442 1215.000860 452.164995 1182.240163 477.543636 C1179.345165 479.786297 1175.704035 475.888054 1174.133329 472.579970 z"/><path class="selected"  fill="#000000" opacity="1.000000" stroke="none" 
 	d="
M90.672636 441.475262 C82.313329 428.527214 91.813710 411.808320 101.036810 399.460671 C103.594534 418.425651 111.306397 436.670132 123.126564 451.719918 C130.700274 461.362994 140.284873 469.909850 151.943606 473.707737 C170.453485 479.737419 191.424072 472.519719 205.778169 459.369338 C220.132267 446.218956 228.810149 427.995229 235.027895 409.547674 C249.855294 365.555972 252.428698 317.504146 242.384566 272.180457 C238.714166 255.617941 233.286138 239.195522 223.826704 225.113339 C214.367270 211.031157 200.515644 199.395202 184.104299 195.099101 C153.581512 187.108961 121.929888 205.816261 101.216914 229.616586 C92.553654 239.571139 85.019267 250.569092 79.484380 262.548667 C64.718725 294.507090 64.996311 331.089299 65.550919 366.289552 C66.131218 403.120210 66.711515 439.950868 67.291813 476.781527 C67.342206 479.979902 67.177812 483.658481 64.670466 485.644775 C62.862008 487.077416 60.365859 487.161270 58.058791 487.181703 C42.249054 487.321729 26.439317 487.461755 10.629581 487.601780 C5.874810 487.643894 -0.698857 485.741180 0.060278 481.047212 C6.608211 440.559751 6.633954 399.336716 6.643643 358.323188 C6.660439 287.221836 6.677236 216.120484 6.694033 145.019133 C6.704874 99.129105 6.706701 53.090216 0.882399 7.571295 C0.578412 5.195528 0.448175 2.335824 2.362925 0.896933 C3.547014 0.007119 5.148381 -0.013589 6.629447 0.003042 C28.413473 0.247645 50.197499 0.492248 71.981524 0.736851 C65.658149 83.519979 64.261728 166.679175 67.802110 249.627937 C87.654931 213.896016 124.761196 187.973124 165.317637 182.866295 C205.874078 177.759466 248.789404 194.089192 274.752833 225.661410 C286.695200 240.183646 295.021250 257.442349 300.622186 275.390747 C310.929893 308.422156 312.127149 344.355989 303.272348 377.806180 C291.308589 423.000876 259.064582 464.076132 214.978000 479.634580 C170.891417 495.193027 116.030086 480.752378 90.672636 441.475262 z"/><path class="selected"  fill="#000000" opacity="1.000000" stroke="none" 
 	d="
M687.004030 783.705727 C691.228967 790.221703 691.750427 798.382285 692.146373 806.138010 C693.004943 822.955551 693.863514 839.773091 694.722085 856.590632 C694.975817 861.560683 687.658086 862.876993 683.043632 861.013499 C678.429178 859.150005 673.340478 855.938230 668.925387 858.234480 C656.000781 864.956451 639.496971 864.183447 627.257257 856.282830 C622.671503 861.247997 615.065609 861.560155 608.306857 861.524073 C589.565794 861.424012 570.824732 861.323955 552.083670 861.223898 C549.718296 861.211269 547.097550 861.099484 545.402769 859.449371 C543.635981 857.729148 543.522317 854.975385 543.523625 852.509476 C543.541415 818.994938 543.559204 785.480400 543.576993 751.965861 C543.578096 749.889237 543.703329 747.530562 545.290928 746.191944 C546.109254 745.501956 547.184033 745.215629 548.220563 744.948524 C551.918119 743.995693 555.774102 743.037365 559.512798 743.813231 C563.251493 744.589096 566.810347 747.662107 566.793954 751.480423 C566.674199 779.374429 566.554445 807.268434 566.434690 835.162439 C566.428497 836.604848 566.488269 838.214859 567.515234 839.227738 C568.516163 840.214937 570.077510 840.278500 571.483359 840.281441 C585.059455 840.309841 598.635552 840.338241 612.211648 840.366642 C614.421179 840.371264 617.424824 839.587114 617.258621 837.383838 C616.469437 826.922466 624.176318 817.309304 633.539653 812.577391 C642.902987 807.845477 653.675739 806.973616 664.137174 806.185310 C669.890812 805.751752 672.300735 797.327680 668.656310 792.854372 C665.011885 788.381064 658.031082 787.957939 652.763507 790.312718 C647.495933 792.667496 643.541100 797.157781 639.760107 801.516268 C635.775412 801.573367 631.596090 801.585971 628.075743 799.718296 C624.555395 797.850621 622.045532 793.431374 623.682500 789.798002 C628.865353 778.294278 642.215427 772.607154 654.786036 771.522064 C666.812084 770.483980 680.437020 773.577656 687.004029 783.705727 M639.828563 833.854963 C638.325468 839.039094 643.807978 843.797553 649.108654 844.816045 C660.043363 846.917078 671.849818 838.442440 673.357549 827.410263 C673.581052 825.774894 673.422234 823.766953 671.973256 822.976485 C671.160409 822.533050 670.172346 822.622744 669.253267 822.735205 C662.432625 823.569803 655.683491 824.987991 649.103784 826.969194 C645.251375 828.129184 640.948932 829.990844 639.828562 833.854962 z"/><path class="selected"  fill="#000000" opacity="1.000000" stroke="none" 
 	d="
M691.826162 351.628467 C680.220382 356.648569 673.289034 369.361726 672.225293 381.961885 C671.161552 394.562043 675.073364 407.067340 680.106561 418.667446 C682.072470 423.198313 685.938419 428.487977 690.659457 427.036994 C713.913011 419.890152 737.682016 412.669520 761.998542 413.384861 C786.315068 414.100203 811.715873 424.190332 824.609530 444.819407 C831.264606 455.467128 848.624189 450.316685 856.375686 440.438512 C874.955101 416.761674 863.958399 379.476089 840.478865 360.647959 C816.999331 341.819828 785.372764 337.179402 755.326333 335.447637 C725.279902 333.715871 694.310625 334.041567 666.374391 322.845415 C638.438156 311.649263 613.895403 285.087591 616.177671 255.077954 C617.640934 235.837456 629.963723 218.590122 645.762620 207.511655 C661.561518 196.433188 680.544337 190.807831 699.499757 187.198170 C756.452039 176.352807 816.534160 182.522379 870.093840 204.715734 C877.751548 207.888834 880.502824 217.951265 878.233468 225.923660 C875.964112 233.896055 870.042594 240.224793 864.317588 246.219238 C815.965718 209.435930 753.716285 183.049815 694.946511 198.445554 C683.381741 201.475142 671.784011 206.381803 664.017991 215.470875 C656.251970 224.559947 653.394386 238.641699 659.920178 248.658502 C665.235990 256.818038 675.166165 260.524943 684.580502 263.016155 C714.790169 271.010207 746.384341 271.755055 777.286336 276.402156 C808.188331 281.049256 839.838747 290.384820 862.347509 312.061639 C883.899774 332.817314 894.784950 364.113597 890.764370 393.763776 C886.743791 423.413955 867.917352 450.681328 841.616035 464.948032 C838.750587 466.502346 838.408369 470.405457 838.424713 473.665275 C838.612076 511.031280 838.799436 548.397286 838.986797 585.763291 C839.207054 629.689778 839.435891 673.750347 845.073874 717.314070 C821.126867 718.501728 797.134386 718.772221 773.166690 718.124758 C779.305784 643.902429 780.747942 569.291923 777.481672 494.887796 C777.287171 490.457159 775.380826 484.499572 770.988118 485.109897 C731.571799 490.586427 690.468352 483.157572 655.462661 464.230340 C635.702620 453.546281 607.339368 470.426980 607.307438 492.890445 C607.204238 565.493307 607.101039 638.096168 606.997839 710.699029 C606.994799 712.837842 606.898285 715.215536 605.391275 716.733248 C603.864028 718.271341 601.448121 718.364686 599.280589 718.360389 C579.947550 718.322063 560.614510 718.283736 541.281470 718.245409 C546.532227 651.715164 548.066829 584.891803 545.875737 518.190656 C544.967487 490.541758 543.350805 462.530956 534.723050 436.246963 C508.481660 453.714088 481.520516 470.892261 451.472404 480.422317 C421.424292 489.952373 387.523170 491.145672 359.278654 477.147161 C331.034137 463.148651 310.405139 431.792509 314.919451 400.594240 C319.551507 368.582243 348.307162 344.700189 378.910132 334.227268 C409.513103 323.754348 442.509352 323.620816 474.653615 320.019390 C490.662204 318.225796 507.011633 315.392758 520.824865 307.105025 C534.638097 298.817291 545.532061 283.975361 544.959770 267.876778 C544.295380 249.187452 543.005798 228.856274 530.603416 214.859372 C523.278995 206.593282 512.887747 201.643223 502.326652 198.412333 C473.105927 189.473019 441.139255 192.376186 412.246064 202.323328 C383.352873 212.270470 357.205914 228.916675 332.870125 247.397246 C325.286187 237.127466 319.304302 225.677025 315.206604 213.585980 C371.903617 190.022011 433.898292 179.308771 495.215194 182.478870 C517.562269 183.634219 540.126441 186.690281 560.740327 195.396272 C581.094742 203.992680 599.108060 218.060343 612.380464 235.725102 C606.438309 311.688118 604.962951 388.000303 607.964546 464.136230 C616.757600 459.394062 625.550654 454.651895 634.343708 449.909727 C612.480766 430.640274 603.543531 396.397919 617.277966 370.694507 C631.012401 344.991095 668.581800 334.050079 691.826162 351.628467 M421.203087 462.795819 C442.992418 466.842690 465.764097 462.584241 486.076789 453.721586 C506.389481 444.858931 524.480655 431.582495 541.327503 417.183334 C546.029568 413.164435 546.390990 406.149047 546.390657 399.963501 C546.389282 374.520060 546.387907 349.076619 546.386533 323.633178 C546.386496 322.954843 546.369833 322.223797 545.963811 321.680396 C545.285444 320.772498 543.927596 320.843099 542.805814 321.004544 C527.113790 323.262916 511.421767 325.521287 495.729743 327.779659 C473.568386 330.969082 451.139111 334.230223 430.447797 342.784034 C409.756483 351.337845 390.651121 365.889551 381.285252 386.226184 C371.919382 406.562817 374.314847 433.059236 390.589282 448.435872 C398.896343 456.284663 409.966739 460.708924 421.203087 462.795819 M735.575212 431.713351 C730.922979 430.891868 726.165789 430.802395 721.449101 431.068767 C713.514917 431.516845 705.638004 432.969611 698.065993 435.381392 C697.157943 435.670617 696.211044 436.001103 695.575216 436.710982 C693.663522 438.845326 695.885502 442.102720 698.061324 443.967068 C718.577104 461.545937 745.666165 471.263754 772.677901 470.734707 C770.293858 451.665957 754.499649 435.054993 735.575212 431.713351 z"/><path class="selected"  fill="#000000" opacity="1.000000" stroke="none" 
 	d="
M851.950936 838.324282 C858.187236 832.654584 869.524512 834.400611 873.765945 841.683959 C878.007377 848.967307 873.930911 859.689473 865.922072 862.315384 C857.913233 864.941295 848.279555 858.714363 847.385099 850.333620 C837.695566 860.034399 823.321167 864.825351 809.749198 862.877572 C796.177229 860.929794 783.730398 852.289600 777.160169 840.255304 C769.357138 859.795333 742.411088 868.658979 724.531907 857.566869 C720.944632 855.341351 716.434671 857.879128 712.743883 859.928410 C709.053095 861.977692 703.496428 863.109646 701.368218 859.463800 C700.584077 858.120486 700.558947 856.482323 700.555194 854.926895 C700.477208 822.607360 700.399222 790.287826 700.321236 757.968291 C700.308727 752.784186 700.735087 746.726556 705.042452 743.841819 C711.585734 739.459642 720.298499 747.044166 721.565094 754.816794 C722.831690 762.589422 720.128122 770.573661 721.204055 778.374968 C731.069323 771.397448 744.389120 769.589164 755.757562 773.684013 C767.126005 777.778862 776.233427 787.665305 779.383551 799.330895 C779.035585 787.941410 787.833785 777.635792 798.515023 773.666838 C809.196262 769.697884 821.220054 771.101997 832.018963 774.738616 C836.562593 776.268719 841.163435 778.316317 844.180253 782.042519 C847.197071 785.768722 848.106407 791.577725 845.089658 795.303984 C841.979769 799.145288 836.069235 799.377557 831.403642 797.746848 C826.738048 796.116140 822.708104 793.039954 818.135036 791.165382 C813.561968 789.290809 807.797659 788.866291 804.120986 792.169176 C800.444312 795.472060 801.559010 803.137790 806.468685 803.705299 C817.166910 804.941906 828.211282 806.289829 837.520412 811.704745 C846.829542 817.119662 853.998805 827.751323 851.950936 838.324282 M755.074016 798.617675 C751.745818 791.048234 741.518033 788.115800 733.923118 791.385448 C726.328203 794.655096 721.568106 802.739664 720.536938 810.943932 C719.505770 819.148201 721.697627 827.444205 724.844216 835.090924 C728.037226 842.850454 738.390797 846.030848 746.135775 842.802704 C753.880753 839.574560 758.767740 831.367058 759.778331 823.037333 C760.788923 814.707609 758.451314 806.298786 755.074015 798.617676 M829.978661 831.944478 C828.862453 829.574605 826.314810 828.254099 823.856852 827.348193 C816.338077 824.577073 808.171266 824.121514 800.450436 821.976783 C792.729606 819.832051 784.904599 815.330570 782.196537 807.788854 C781.626148 814.950699 781.055758 822.112545 780.485369 829.274391 C780.295676 831.656201 780.127399 834.164345 781.145408 836.325979 C784.808826 834.334541 788.587538 832.555232 792.456319 830.999930 C794.135033 830.325065 796.610346 830.008467 797.246847 831.702100 C800.982434 841.641920 813.584194 847.161745 823.423050 843.167804 C827.925164 841.340236 832.049050 836.340218 829.978661 831.944478 z"/></svg>